<svg width="172" height="93" viewBox="0 0 172 93" fill="none" xmlns="http://www.w3.org/2000/svg">
<g id="Isolation_Mode">
<g id="Group">
<g id="Group_2">
<path id="Vector" d="M59.7762 78.1632C59.7058 78.2148 59.6261 78.2406 59.5416 78.2406C59.4689 78.2406 59.4103 78.2359 59.3657 78.2266C59.3235 78.2172 59.293 78.1914 59.2743 78.1492C59.218 78.0577 59.1547 77.7833 59.0796 77.3283C59.0069 76.8733 58.9342 76.3503 58.8662 75.7593C58.7184 73.9558 58.6035 73.0364 58.5238 72.9989C58.4558 73.1466 58.3502 73.4257 58.2095 73.8338C58.0688 74.2442 57.9046 74.7766 57.7193 75.4357C57.5153 76.1439 57.3629 76.6317 57.2573 76.8991C57.1518 77.1665 57.0603 77.3306 56.9806 77.394C56.9313 77.4362 56.8703 77.4784 56.8 77.5183C56.7296 77.5581 56.6687 77.5792 56.6194 77.5792C56.5584 77.5792 56.5186 77.5722 56.4998 77.5558C56.481 77.5394 56.4599 77.4925 56.4341 77.4127C56.4083 77.3213 56.352 77.0328 56.2582 76.5497C56.1668 76.0665 56.0941 75.6303 56.0448 75.2433L55.9885 74.8564C55.883 74.0566 55.8126 73.611 55.7751 73.5172C55.6578 73.6227 55.5476 73.8549 55.4421 74.2138C55.3365 74.5726 55.2169 75.0839 55.0809 75.7405C54.9519 76.2518 54.7948 77.082 54.6095 78.2336C54.6025 78.3016 54.5579 78.3626 54.4711 78.4189C54.3843 78.4752 54.307 78.5009 54.2413 78.5009C54.1428 78.5009 54.0865 78.4048 54.0748 78.2148C54.0677 78.0248 54.0279 77.6121 53.9505 76.9789C53.8731 76.3456 53.8051 75.7875 53.7417 75.309C53.655 74.6265 53.5377 73.9933 53.3899 73.407C53.3477 73.2217 53.3243 73.1185 53.3243 73.0927C53.3243 73.0012 53.3688 72.9262 53.458 72.8676C53.5471 72.8089 53.6432 72.7808 53.7488 72.7808C53.798 72.7808 53.8496 72.9708 53.9059 73.353C53.9622 73.7353 54.0208 74.2138 54.0818 74.793L54.1099 75.0979C54.1334 75.302 54.1615 75.5131 54.192 75.7359C54.3093 76.6763 54.3726 77.2673 54.3867 77.5089C54.5086 76.7959 54.6494 76.0783 54.8018 75.3583L54.8839 74.9525C55.0199 74.3005 55.1677 73.8057 55.3272 73.4703C55.4866 73.1349 55.693 72.9684 55.9463 72.9684C56.026 72.9684 56.1152 73.1771 56.2137 73.5923C56.3122 74.0074 56.3896 74.4929 56.4435 75.0463C56.4857 75.4403 56.542 75.825 56.61 76.2002C56.678 76.5755 56.739 76.8381 56.7953 76.9859C56.8328 76.8803 56.9079 76.6505 57.0204 76.294C57.1354 75.9376 57.2409 75.5998 57.3394 75.2785C57.642 74.2513 57.9609 73.3319 58.2986 72.5181C58.3596 72.3891 58.4206 72.2953 58.4792 72.2367C58.5379 72.178 58.641 72.1499 58.7888 72.1499C58.8685 72.1499 58.9553 72.5017 59.0468 73.2029C59.1382 73.9042 59.2156 74.718 59.2766 75.6397C59.4431 76.9437 59.5932 77.6543 59.7293 77.7716C59.8207 77.8513 59.8676 77.9381 59.8676 78.0295C59.8817 78.0647 59.8465 78.1116 59.7762 78.1632Z" fill="#788335"/>
<path id="Vector_2" d="M64.2017 76.2939C64.2017 76.4041 64.1197 76.648 63.9578 77.0233C63.7937 77.3985 63.5474 77.7456 63.2191 78.0669C62.8907 78.3859 62.485 78.5477 62.0042 78.5477C61.6102 78.5477 61.2819 78.4257 61.0168 78.1795C60.7518 77.9332 60.6205 77.5556 60.6205 77.0444C60.6205 76.5636 60.7307 76.0898 60.9535 75.6184C61.174 75.147 61.4648 74.7624 61.8213 74.4645C62.1778 74.1667 62.5483 74.0166 62.9282 74.0166C63.1557 74.0166 63.3481 74.0682 63.5052 74.169C63.6623 74.2699 63.7397 74.4177 63.7397 74.6076C63.7397 74.8234 63.6178 75.0321 63.3762 75.2362C63.1323 75.4402 62.818 75.6184 62.431 75.7709C62.0441 75.9257 61.643 76.0359 61.2303 76.1039C61.1576 76.3877 61.12 76.6644 61.12 76.9341C61.12 77.2906 61.2045 77.5674 61.3733 77.7644C61.5422 77.9614 61.7838 78.0599 62.098 78.0599C62.5718 78.0599 62.9564 77.891 63.2519 77.5533C63.5474 77.2156 63.7937 76.8333 63.9907 76.4088C64.0024 76.3853 64.0235 76.3361 64.0563 76.2657C64.0868 76.1954 64.115 76.1602 64.1384 76.1602C64.1806 76.1555 64.2017 76.2024 64.2017 76.2939ZM63.1722 74.4763C63.0713 74.42 62.9517 74.3942 62.8157 74.3942C62.5811 74.3942 62.3583 74.4716 62.1426 74.624C61.9268 74.7788 61.7462 74.9618 61.6032 75.1775C61.4578 75.3933 61.3639 75.5833 61.3217 75.7498C61.6055 75.7193 61.9034 75.6395 62.2176 75.5105C62.5319 75.3816 62.7946 75.2408 63.008 75.0861C63.2214 74.9313 63.3269 74.807 63.3269 74.7085C63.3246 74.6076 63.2754 74.5302 63.1722 74.4763Z" fill="#788335"/>
<path id="Vector_3" d="M68.8266 78.053C68.8688 78.0999 68.8923 78.1374 68.8923 78.1679C68.8923 78.2406 68.8618 78.3274 68.8008 78.4212C68.7398 78.5173 68.6765 78.5642 68.6155 78.5642C68.51 78.5642 68.4303 78.4986 68.3763 78.3696C68.32 78.2406 68.2942 78.0905 68.2942 77.9169C68.2942 77.7692 68.3036 77.3259 68.3224 76.5872L68.3318 76.2354C68.3318 76.0947 68.2942 75.9914 68.2215 75.9305C67.9448 76.3972 67.6868 76.8053 67.4453 77.15C67.206 77.4948 66.9011 77.8184 66.5306 78.1233C66.1624 78.4282 65.7731 78.5807 65.3673 78.5807C65.1703 78.5807 65.0179 78.5197 64.91 78.3954C64.8021 78.2734 64.7482 78.1116 64.7482 77.9146C64.7482 77.6683 64.8584 77.3306 65.0812 76.9038C65.3017 76.4769 65.5854 76.0431 65.9302 75.6021C66.275 75.1612 66.6197 74.8001 66.9645 74.5186C67.192 74.3333 67.3725 74.209 67.5086 74.1457C67.6446 74.08 67.7642 74.0496 67.8697 74.0496C67.9682 74.0496 68.0691 74.08 68.1746 74.141C68.2802 74.202 68.3693 74.2888 68.442 74.399C68.5147 74.5092 68.5522 74.6359 68.5522 74.7766C68.5522 74.9666 68.5006 75.1495 68.3951 75.3207L68.5522 75.2738C68.6202 75.2738 68.6601 75.3559 68.6718 75.5224C68.6789 75.6209 68.6859 75.8202 68.6953 76.1228C68.7047 76.4253 68.7117 76.6739 68.7187 76.8709C68.7258 77.075 68.7305 77.272 68.7375 77.462C68.7445 77.6519 68.7492 77.8044 68.7563 77.9146C68.7586 77.9615 68.7844 78.0061 68.8266 78.053ZM66.4555 77.7152C66.7628 77.469 67.0395 77.1758 67.2811 76.8334C67.525 76.491 67.7924 76.0712 68.0879 75.574C68.1606 75.3887 68.1981 75.1894 68.1981 74.9736C68.1981 74.8446 68.1606 74.732 68.0832 74.6359C68.0058 74.5397 67.9026 74.4928 67.7736 74.4928C67.6188 74.4928 67.4218 74.5984 67.1826 74.8071C66.9058 75.0416 66.6127 75.3535 66.3054 75.7452C65.9982 76.1369 65.7426 76.5215 65.5385 76.9038C65.3345 77.2861 65.2336 77.5862 65.2336 77.809C65.2336 77.9943 65.3204 78.0858 65.4916 78.0858C65.827 78.0858 66.146 77.9615 66.4555 77.7152Z" fill="#788335"/>
<path id="Vector_4" d="M70.5903 78.4095C70.5105 78.447 70.4214 78.4658 70.3229 78.4658C70.2502 78.4658 70.1798 78.379 70.1142 78.2031C70.0485 78.0272 70.018 77.7622 70.018 77.4057C70.025 76.7115 70.0344 75.8695 70.0508 74.8845C70.0673 73.8995 70.079 73.1584 70.0931 72.6588C70.1001 72.4806 70.1306 72.3141 70.1892 72.1593C70.2478 72.0045 70.351 71.9294 70.4988 71.9294C70.548 71.9294 70.5809 71.9552 70.5949 72.0068C70.6114 72.0584 70.6184 72.1593 70.6184 72.307C70.6184 72.3141 70.6161 72.3328 70.6137 72.368C70.6114 72.4008 70.609 72.4618 70.609 72.5486C70.4988 74.1669 70.4425 75.7452 70.4425 77.2837C70.4425 77.4807 70.4871 77.6895 70.5762 77.9123C70.6653 78.1327 70.7099 78.25 70.7099 78.2641C70.7099 78.3227 70.67 78.372 70.5903 78.4095Z" fill="#788335"/>
<path id="Vector_5" d="M74.657 77.9967C74.4389 78.2453 74.1505 78.447 73.794 78.5971C73.4375 78.7472 73.0646 78.8222 72.6776 78.8222C72.4126 78.8222 72.2344 78.7988 72.1429 78.7495C72.0514 78.7003 72.0045 78.6322 72.0045 78.5455C72.0045 78.4892 72.0749 78.393 72.2179 78.2547C72.3587 78.1163 72.4548 78.0459 72.5041 78.0459C72.5768 78.0459 72.6143 78.0623 72.6143 78.0928C72.6143 78.1163 72.5979 78.1421 72.5674 78.1655C72.5369 78.189 72.5205 78.2124 72.5205 78.2312C72.5205 78.257 72.558 78.2804 72.6354 78.3039C72.7128 78.3297 72.8066 78.3414 72.9168 78.3414C73.1748 78.3414 73.4351 78.2945 73.6978 78.1984C73.9581 78.1022 74.1739 77.9779 74.3404 77.8255C74.5069 77.6707 74.589 77.5088 74.589 77.3353C74.589 77.1688 74.5374 77.0375 74.4319 76.939C74.3264 76.8405 74.1974 76.7677 74.0402 76.7232C73.8831 76.6763 73.6204 76.6106 73.2522 76.5238C72.8465 76.4324 72.5299 76.3503 72.3071 76.2799C72.0819 76.2096 71.9013 76.1204 71.7676 76.0126C71.6316 75.9047 71.5636 75.7687 71.5636 75.6021C71.5636 75.3066 71.709 75.0369 71.9975 74.7907C72.2859 74.5444 72.619 74.3498 72.9942 74.209C73.3695 74.0683 73.6579 73.9956 73.862 73.9956C74.0707 73.9956 74.1763 74.0566 74.1763 74.1809C74.1763 74.2536 74.1504 74.3357 74.1035 74.4248C74.0543 74.5139 73.9792 74.5585 73.8831 74.5585C73.8456 74.5585 73.8057 74.5444 73.7635 74.5163C73.7213 74.4881 73.6767 74.4741 73.6345 74.4741C73.5102 74.4741 73.3179 74.5139 73.0529 74.5937C72.7878 74.6734 72.5486 74.793 72.3329 74.9525C72.1171 75.112 72.0092 75.3066 72.0092 75.5341C72.0092 75.6819 72.0936 75.7921 72.2625 75.8625C72.4314 75.9328 72.748 76.0219 73.2076 76.1251C73.2639 76.1439 73.3179 76.158 73.3742 76.1673C73.4304 76.1767 73.4797 76.1885 73.5219 76.2002C73.9957 76.3104 74.3592 76.4371 74.6101 76.5778C74.8634 76.7185 74.9877 76.9319 74.9877 77.2157C74.983 77.4877 74.8751 77.7481 74.657 77.9967Z" fill="#788335"/>
<path id="Vector_6" d="M81.3528 77.429C81.1746 77.7433 80.9213 78.013 80.5953 78.2358C80.2693 78.4609 79.8964 78.5735 79.4789 78.5735C79.0661 78.5735 78.7613 78.4586 78.5642 78.2311C78.3672 78.0036 78.2687 77.7198 78.2687 77.3821C78.2687 77.0866 78.3227 76.7207 78.4306 76.2845C78.5384 75.8483 78.6909 75.4566 78.8879 75.1119C78.8996 75.0884 78.9512 74.997 79.0403 74.8398C79.1295 74.6827 79.2303 74.5631 79.3405 74.481C79.4508 74.3989 79.568 74.3567 79.6923 74.3567C79.7486 74.3567 79.7979 74.3708 79.8448 74.3989C79.8917 74.427 79.9151 74.4622 79.9151 74.5044C79.9151 74.5162 79.8987 74.5467 79.8635 74.5912C79.8307 74.6381 79.8026 74.6733 79.7861 74.6967C79.5774 74.95 79.4085 75.1986 79.2796 75.4449C79.106 75.7592 78.9723 76.0687 78.8785 76.3783C78.7824 76.6856 78.7354 77.0209 78.7354 77.3844C78.7354 77.8699 79.031 78.1138 79.622 78.1138C79.8987 78.1138 80.1567 78.0341 80.3936 77.8746C80.6304 77.7151 80.8204 77.5181 80.9611 77.2883C81.1018 77.0585 81.1746 76.8474 81.1746 76.6551C81.1746 76.4393 81.1042 76.2517 80.9611 76.0922C80.8204 75.9327 80.6258 75.7639 80.3795 75.5856C80.22 75.4684 80.1028 75.3722 80.0277 75.2995C79.9527 75.2268 79.9175 75.1635 79.9175 75.1142C79.9175 75.0415 79.9691 74.9805 80.0746 74.9336C80.1802 74.8867 80.3021 74.8633 80.4428 74.8633C80.5226 74.8633 80.5742 74.868 80.6 74.8773C80.6234 74.8867 80.6375 74.9031 80.6375 74.9289C80.6375 74.9407 80.6258 74.9618 80.6046 74.9899C80.5835 75.018 80.5718 75.0415 80.5718 75.0603C80.5718 75.079 80.6328 75.14 80.7571 75.2455C81.0033 75.4496 81.2097 75.656 81.3762 75.8647C81.5428 76.0734 81.6248 76.3197 81.6248 76.6035C81.6202 76.838 81.531 77.1171 81.3528 77.429Z" fill="#788335"/>
<path id="Vector_7" d="M85.443 78.7638C85.382 78.8154 85.307 78.8412 85.2226 78.8412C85.1616 78.8412 85.1076 78.8271 85.0654 78.799C85.0232 78.7708 84.9998 78.7333 84.9998 78.684C84.9998 78.4307 85.0185 78.0414 85.056 77.5114C85.0936 76.9462 85.1123 76.4748 85.1123 76.0995C85.1123 75.736 85.1006 75.4405 85.0795 75.2083C85.0584 74.9785 85.0068 74.8612 84.9271 74.8612C84.7183 74.8612 84.4885 75.1215 84.2399 75.6422C83.9913 76.1629 83.7052 76.8477 83.3862 77.6967L83.2478 78.0649C83.2244 78.1259 83.1822 78.1751 83.1235 78.2126C83.0649 78.2502 83.0039 78.2689 82.9429 78.2689C82.8702 78.2689 82.8186 78.2619 82.7952 78.2502C82.7717 78.2384 82.7553 78.2009 82.7483 78.1399L82.6756 77.3824L82.5372 76.0526C82.495 75.5226 82.441 75.0629 82.3801 74.6689C82.3613 74.5774 82.3519 74.5047 82.3519 74.4555C82.3519 74.364 82.3918 74.289 82.4715 74.2303C82.5513 74.1717 82.6427 74.1436 82.7483 74.1436C82.8092 74.1436 82.8538 74.2913 82.882 74.5868C82.9101 74.8823 82.9382 75.3584 82.9687 76.0174L83.0063 76.5076C83.0555 77.1291 83.0836 77.5231 83.0883 77.6896C83.1071 77.6521 83.1235 77.6122 83.1399 77.5653C83.1564 77.5184 83.1751 77.4692 83.2009 77.4129C83.534 76.5522 83.8459 75.8322 84.139 75.2576C84.4322 74.683 84.7136 74.3945 84.9833 74.3945C85.1733 74.3945 85.3046 74.5563 85.375 74.88C85.4454 75.2036 85.4899 75.6164 85.5087 76.1206C85.5274 76.6812 85.5368 77.4997 85.5368 78.5762C85.5345 78.6489 85.504 78.7122 85.443 78.7638Z" fill="#788335"/>
<path id="Vector_8" d="M94.7139 76.6506C94.5497 77.2205 94.3621 77.6825 94.1464 78.0343C93.9306 78.3884 93.7594 78.5643 93.6304 78.5643C93.4451 78.5643 93.2692 78.3861 93.1051 78.0296C92.9385 77.6731 92.8025 77.2416 92.6946 76.7373C92.5867 76.2331 92.5211 75.7734 92.4953 75.363C92.3288 75.6819 92.1505 76.0455 91.9606 76.4465C91.7706 76.8499 91.6181 77.1923 91.5079 77.4761C91.3414 77.9123 91.1936 78.3368 91.0647 78.7496C91.0576 78.7613 91.0482 78.7918 91.0365 78.8364C91.0248 78.8833 91.006 78.9138 90.9849 78.9325C90.9638 78.9513 90.931 78.9607 90.8888 78.9607C90.7973 78.9607 90.7269 78.9396 90.68 78.8997C90.6331 78.8598 90.5933 78.7965 90.5557 78.7097L90.483 78.3321C90.3728 77.7294 90.2555 77.1571 90.1312 76.6154C89.9952 76.0549 89.8568 75.5928 89.7161 75.2317C89.5754 74.8681 89.4675 74.6875 89.3925 74.6875C89.369 74.6875 89.3315 74.7087 89.2822 74.7485C89.233 74.7884 89.1861 74.8212 89.1439 74.8447C89.1016 74.8681 89.0641 74.8752 89.0336 74.8634C88.9609 74.8259 88.9234 74.7837 88.9234 74.7345C88.9234 74.6852 88.9609 74.6078 89.0336 74.5046C89.1063 74.4014 89.1931 74.3053 89.2869 74.2232C89.3831 74.1411 89.4675 74.0989 89.5402 74.0989C89.5965 74.0989 89.6434 74.1129 89.6833 74.1411C89.7231 74.1692 89.7654 74.2115 89.8076 74.2654C89.8873 74.3709 89.9975 74.6148 90.1406 74.9995C90.2813 75.3841 90.4103 75.8508 90.5276 76.3973L90.9052 78.0132C91.189 77.2251 91.4493 76.5708 91.6862 76.0525C91.923 75.5319 92.1927 74.9924 92.4929 74.4319C92.6102 74.2232 92.7322 74.1176 92.8611 74.1176C92.9479 74.1176 93.0183 74.1481 93.0746 74.2091C93.1309 74.2701 93.1566 74.3193 93.1566 74.3569C93.1566 74.3803 93.1402 74.4085 93.1097 74.4389C93.0793 74.4694 93.0535 74.4999 93.037 74.5304C92.9878 74.5984 92.9503 74.6758 92.9221 74.7602C92.894 74.847 92.8799 74.9784 92.8799 75.1566C92.8799 75.3724 92.9174 75.7101 92.9948 76.1674C93.0722 76.6271 93.1754 77.0375 93.3091 77.3987C93.4404 77.7622 93.5835 77.9428 93.7383 77.9428C93.8298 77.9428 93.9447 77.788 94.0807 77.4808C94.2167 77.1736 94.334 76.7936 94.4372 76.341C94.538 75.8883 94.5896 75.4545 94.5896 75.0346C94.5896 74.9479 94.5474 74.8494 94.4606 74.7392C94.3926 74.6477 94.3598 74.5797 94.3598 74.5351C94.3598 74.4976 94.3879 74.4436 94.4466 74.3733C94.5052 74.3029 94.5662 74.2677 94.6271 74.2677C94.7069 74.2677 94.7819 74.3334 94.8523 74.4624C94.9227 74.5914 94.9578 74.7204 94.9578 74.8494C94.9602 75.4826 94.8781 76.0806 94.7139 76.6506Z" fill="#788335"/>
<path id="Vector_9" d="M99.7962 78.8292C99.7469 78.8808 99.6812 78.9066 99.6015 78.9066C99.5405 78.9066 99.4866 78.8925 99.4444 78.8644C99.4021 78.8362 99.3787 78.7987 99.3787 78.7494L99.3975 78.1115C99.428 77.354 99.4444 76.7372 99.4444 76.2564C99.4444 75.5552 99.3951 75.065 99.2966 74.7836C99.1981 74.5045 99.0832 74.3637 98.9542 74.3637C98.6657 74.3637 98.3022 74.8117 97.866 75.7076C97.4298 76.6035 97.0076 77.5791 96.6019 78.6392C96.5714 78.726 96.5292 78.8081 96.4776 78.8878C96.426 78.9676 96.372 79.0074 96.3158 79.0074C96.1797 79.0074 96.1117 78.9652 96.1117 78.8784C96.1117 78.5032 96.0953 77.7996 96.0648 76.77C96.0343 75.7381 96.0085 75.0603 95.9921 74.7343C95.9358 73.632 95.8842 72.9519 95.835 72.6939C95.7857 72.4359 95.7623 72.2975 95.7623 72.2788C95.7623 72.2178 95.7951 72.1709 95.8631 72.1404C95.9311 72.1099 96.0179 72.0935 96.1211 72.0935C96.2079 72.0935 96.2712 72.2882 96.3111 72.6798C96.3509 73.0715 96.3814 73.571 96.3978 74.1808L96.4072 74.4388C96.4189 74.6288 96.4283 75.1752 96.4354 76.0781C96.4424 76.9787 96.4447 77.6425 96.4447 78.067C96.7285 77.3587 96.9935 76.7278 97.2421 76.1743C97.4907 75.6208 97.7792 75.1025 98.1052 74.6194C98.4312 74.1363 98.7337 73.8947 99.0105 73.8947C99.245 73.8947 99.442 74.0893 99.6015 74.481C99.761 74.8727 99.8407 75.4543 99.8407 76.2306C99.8407 76.5754 99.8478 77.0561 99.8595 77.6706L99.8689 78.6392C99.8689 78.7119 99.8454 78.7752 99.7962 78.8292Z" fill="#788335"/>
<path id="Vector_10" d="M104.559 76.2939C104.559 76.4041 104.477 76.648 104.315 77.0233C104.151 77.3985 103.905 77.7456 103.577 78.0669C103.248 78.3859 102.843 78.5477 102.362 78.5477C101.968 78.5477 101.64 78.4257 101.375 78.1795C101.109 77.9332 100.978 77.5556 100.978 77.0444C100.978 76.5636 101.088 76.0898 101.311 75.6184C101.532 75.147 101.822 74.7624 102.179 74.4645C102.535 74.1667 102.906 74.0166 103.286 74.0166C103.513 74.0166 103.706 74.0682 103.863 74.169C104.02 74.2699 104.097 74.4177 104.097 74.6076C104.097 74.8234 103.975 75.0321 103.734 75.2362C103.49 75.4402 103.176 75.6184 102.789 75.7709C102.402 75.9257 102.001 76.0359 101.588 76.1039C101.515 76.3877 101.478 76.6644 101.478 76.9341C101.478 77.2906 101.562 77.5674 101.731 77.7644C101.9 77.9614 102.141 78.0599 102.456 78.0599C102.929 78.0599 103.314 77.891 103.61 77.5533C103.905 77.2156 104.151 76.8333 104.348 76.4088C104.36 76.3853 104.381 76.3361 104.414 76.2657C104.444 76.1954 104.473 76.1602 104.496 76.1602C104.538 76.1555 104.559 76.2024 104.559 76.2939ZM103.53 74.4763C103.429 74.42 103.309 74.3942 103.173 74.3942C102.939 74.3942 102.716 74.4716 102.5 74.624C102.284 74.7788 102.104 74.9618 101.961 75.1775C101.815 75.3933 101.722 75.5833 101.679 75.7498C101.963 75.7193 102.261 75.6395 102.575 75.5105C102.89 75.3816 103.152 75.2408 103.366 75.0861C103.579 74.9313 103.685 74.807 103.685 74.7085C103.682 74.6076 103.631 74.5302 103.53 74.4763Z" fill="#788335"/>
<path id="Vector_11" d="M108.842 76.2939C108.842 76.4041 108.76 76.648 108.598 77.0233C108.434 77.3985 108.188 77.7456 107.859 78.0669C107.531 78.3859 107.125 78.5477 106.644 78.5477C106.25 78.5477 105.922 78.4257 105.657 78.1795C105.392 77.9332 105.261 77.5556 105.261 77.0444C105.261 76.5636 105.371 76.0898 105.594 75.6184C105.814 75.147 106.105 74.7624 106.461 74.4645C106.818 74.1667 107.188 74.0166 107.568 74.0166C107.796 74.0166 107.988 74.0682 108.145 74.169C108.303 74.2699 108.38 74.4177 108.38 74.6076C108.38 74.8234 108.258 75.0321 108.016 75.2362C107.772 75.4402 107.458 75.6184 107.071 75.7709C106.684 75.9257 106.283 76.0359 105.87 76.1039C105.798 76.3877 105.76 76.6644 105.76 76.9341C105.76 77.2906 105.845 77.5674 106.014 77.7644C106.182 77.9614 106.424 78.0599 106.738 78.0599C107.212 78.0599 107.597 77.891 107.892 77.5533C108.188 77.2156 108.434 76.8333 108.631 76.4088C108.643 76.3853 108.664 76.3361 108.697 76.2657C108.727 76.1954 108.755 76.1602 108.779 76.1602C108.821 76.1555 108.842 76.2024 108.842 76.2939ZM107.812 74.4763C107.712 74.42 107.592 74.3942 107.456 74.3942C107.221 74.3942 106.999 74.4716 106.783 74.624C106.567 74.7788 106.386 74.9618 106.243 75.1775C106.098 75.3933 106.004 75.5833 105.962 75.7498C106.246 75.7193 106.544 75.6395 106.858 75.5105C107.172 75.3816 107.435 75.2408 107.648 75.0861C107.862 74.9313 107.967 74.807 107.967 74.7085C107.965 74.6076 107.916 74.5302 107.812 74.4763Z" fill="#788335"/>
<path id="Vector_12" d="M110.348 78.4095C110.268 78.447 110.179 78.4658 110.08 78.4658C110.008 78.4658 109.937 78.379 109.872 78.2031C109.806 78.0272 109.775 77.7622 109.775 77.4057C109.782 76.7115 109.792 75.8695 109.808 74.8845C109.825 73.8995 109.836 73.1584 109.85 72.6588C109.857 72.4806 109.888 72.3141 109.947 72.1593C110.005 72.0045 110.108 71.9294 110.256 71.9294C110.305 71.9294 110.338 71.9552 110.352 72.0068C110.369 72.0584 110.376 72.1593 110.376 72.307C110.376 72.3141 110.373 72.3328 110.371 72.368C110.369 72.4008 110.366 72.4618 110.366 72.5486C110.256 74.1669 110.2 75.7452 110.2 77.2837C110.2 77.4807 110.244 77.6895 110.334 77.9123C110.423 78.1327 110.467 78.25 110.467 78.2641C110.467 78.3227 110.427 78.372 110.348 78.4095Z" fill="#788335"/>
<path id="Vector_13" d="M114.412 77.9967C114.194 78.2453 113.905 78.447 113.549 78.5971C113.192 78.7472 112.82 78.8222 112.433 78.8222C112.168 78.8222 111.989 78.7988 111.898 78.7495C111.806 78.7003 111.759 78.6322 111.759 78.5455C111.759 78.4892 111.83 78.393 111.973 78.2547C112.114 78.1163 112.21 78.0459 112.259 78.0459C112.332 78.0459 112.369 78.0623 112.369 78.0928C112.369 78.1163 112.353 78.1421 112.322 78.1655C112.292 78.189 112.275 78.2124 112.275 78.2312C112.275 78.257 112.313 78.2804 112.39 78.3039C112.468 78.3297 112.562 78.3414 112.672 78.3414C112.93 78.3414 113.19 78.2945 113.453 78.1984C113.713 78.1022 113.929 77.9779 114.095 77.8255C114.262 77.6707 114.344 77.5088 114.344 77.3353C114.344 77.1688 114.292 77.0375 114.187 76.939C114.081 76.8405 113.952 76.7677 113.795 76.7232C113.638 76.6763 113.375 76.6106 113.007 76.5238C112.601 76.4324 112.285 76.3503 112.062 76.2799C111.837 76.2096 111.656 76.1204 111.523 76.0126C111.387 75.9047 111.319 75.7687 111.319 75.6021C111.319 75.3066 111.464 75.0369 111.752 74.7907C112.041 74.5444 112.374 74.3498 112.749 74.209C113.124 74.0683 113.413 73.9956 113.617 73.9956C113.826 73.9956 113.931 74.0566 113.931 74.1809C113.931 74.2536 113.905 74.3357 113.858 74.4248C113.809 74.5139 113.734 74.5585 113.638 74.5585C113.601 74.5585 113.561 74.5444 113.518 74.5163C113.476 74.4881 113.432 74.4741 113.389 74.4741C113.265 74.4741 113.073 74.5139 112.808 74.5937C112.543 74.6734 112.304 74.793 112.088 74.9525C111.872 75.112 111.764 75.3066 111.764 75.5341C111.764 75.6819 111.849 75.7921 112.017 75.8625C112.186 75.9328 112.503 76.0219 112.963 76.1251C113.019 76.1439 113.073 76.158 113.129 76.1673C113.185 76.1767 113.235 76.1885 113.277 76.2002C113.751 76.3104 114.114 76.4371 114.365 76.5778C114.618 76.7185 114.743 76.9319 114.743 77.2157C114.74 77.4877 114.632 77.7481 114.412 77.9967Z" fill="#788335"/>
<path id="Vector_14" d="M116.537 78.4259C116.391 78.7331 116.234 79.0169 116.061 79.2748C115.89 79.5328 115.758 79.6618 115.674 79.6618C115.613 79.6618 115.561 79.6454 115.521 79.6102C115.481 79.5774 115.46 79.5328 115.46 79.4765C115.46 79.439 115.496 79.3522 115.566 79.2139C115.636 79.0755 115.681 78.9911 115.7 78.9606L115.958 78.461L116.124 78.0365C116.192 77.8513 116.246 77.7152 116.291 77.6261C116.333 77.537 116.377 77.4924 116.42 77.4924C116.488 77.4924 116.56 77.53 116.635 77.6073C116.713 77.6847 116.75 77.7574 116.75 77.8231C116.753 77.9193 116.68 78.1186 116.537 78.4259Z" fill="#788335"/>
<path id="Vector_15" d="M40.9857 88.4025C40.8591 88.5925 40.7324 88.7661 40.6034 88.9185C40.2845 89.3055 39.996 89.6057 39.7404 89.8144C39.4847 90.0231 39.2197 90.1287 38.943 90.1287C38.7084 90.1287 38.5161 90.0278 38.366 89.8238C38.2159 89.6198 38.1409 89.3876 38.1409 89.1226C38.1409 88.7285 38.2464 88.2313 38.4551 87.6263C38.6639 87.0235 38.9289 86.5005 39.2478 86.0573C39.5668 85.614 39.8881 85.3936 40.2071 85.3936C40.3431 85.3936 40.4604 85.4428 40.5589 85.5413C40.6151 85.5976 40.6667 85.6703 40.716 85.7618C40.7652 85.8532 40.7887 85.9377 40.7887 86.0104C40.7887 86.1159 40.7746 86.2355 40.7465 86.3739C40.7183 86.5123 40.6902 86.5826 40.6597 86.5826C40.5987 86.5826 40.5589 86.5498 40.5401 86.4818C40.5213 86.4137 40.5096 86.327 40.5026 86.2238C40.4838 86.0643 40.4651 85.9588 40.4463 85.9048C40.4275 85.8532 40.3994 85.8274 40.3642 85.8274C40.0757 85.8274 39.7943 86.0291 39.5246 86.4325C39.2525 86.8359 39.0321 87.3026 38.8609 87.835C38.6873 88.3674 38.6029 88.7778 38.6029 89.0663C38.6029 89.472 38.7389 89.6761 39.0086 89.6761C39.2056 89.6761 39.3862 89.6268 39.548 89.5283C39.7099 89.4298 39.8811 89.2914 40.0593 89.1132C40.3924 88.7755 40.6503 88.4823 40.8356 88.236C40.8473 88.2173 40.8825 88.1704 40.9411 88.093C40.9998 88.0156 41.042 87.9781 41.0654 87.9781C41.1381 87.9781 41.1757 88.0062 41.1757 88.0601C41.1757 88.0977 41.1124 88.2102 40.9857 88.4025Z" fill="#788335"/>
<path id="Vector_16" d="M44.7382 89.0101C44.5599 89.3243 44.3066 89.594 43.9806 89.8168C43.6546 90.042 43.2817 90.1546 42.8643 90.1546C42.4515 90.1546 42.1466 90.0396 41.9496 89.8122C41.7526 89.5847 41.6541 89.3009 41.6541 88.9632C41.6541 88.6677 41.7081 88.3018 41.8159 87.8656C41.9238 87.4293 42.0763 87.0377 42.2733 86.6929C42.285 86.6695 42.3366 86.578 42.4257 86.4209C42.5148 86.2637 42.6157 86.1441 42.7259 86.062C42.8361 85.98 42.9534 85.9377 43.0777 85.9377C43.134 85.9377 43.1832 85.9518 43.2301 85.98C43.2771 86.0081 43.3005 86.0433 43.3005 86.0855C43.3005 86.0972 43.2841 86.1277 43.2489 86.1723C43.2161 86.2192 43.1879 86.2543 43.1715 86.2778C42.9628 86.5311 42.7939 86.7797 42.6649 87.0259C42.4914 87.3402 42.3577 87.6498 42.2639 87.9594C42.1677 88.2666 42.1208 88.602 42.1208 88.9655C42.1208 89.451 42.4163 89.6949 43.0073 89.6949C43.2841 89.6949 43.5421 89.6152 43.7789 89.4557C44.0158 89.2962 44.2058 89.0992 44.3465 88.8694C44.4872 88.6395 44.5599 88.4284 44.5599 88.2361C44.5599 88.0204 44.4896 87.8327 44.3465 87.6732C44.2058 87.5138 44.0111 87.3449 43.7649 87.1667C43.6054 87.0494 43.4881 86.9532 43.4131 86.8805C43.338 86.8078 43.3029 86.7445 43.3029 86.6953C43.3029 86.6226 43.3545 86.5616 43.46 86.5147C43.5655 86.4678 43.6875 86.4443 43.8282 86.4443C43.9079 86.4443 43.9595 86.449 43.9853 86.4584C44.0088 86.4678 44.0229 86.4842 44.0229 86.51C44.0229 86.5217 44.0111 86.5428 43.99 86.571C43.9689 86.5991 43.9572 86.6226 43.9572 86.6413C43.9572 86.6601 44.0182 86.7211 44.1425 86.8266C44.3887 87.0306 44.5951 87.237 44.7616 87.4458C44.9281 87.6545 45.0102 87.9007 45.0102 88.1845C45.0055 88.419 44.9164 88.6958 44.7382 89.0101Z" fill="#788335"/>
<path id="Vector_17" d="M48.6876 89.0101C48.5094 89.3243 48.2561 89.594 47.9301 89.8168C47.6041 90.042 47.2312 90.1546 46.8137 90.1546C46.401 90.1546 46.0961 90.0396 45.8991 89.8122C45.7021 89.5847 45.6036 89.3009 45.6036 88.9632C45.6036 88.6677 45.6575 88.3018 45.7654 87.8656C45.8733 87.4293 46.0257 87.0377 46.2227 86.6929C46.2345 86.6695 46.2861 86.578 46.3752 86.4209C46.4643 86.2637 46.5651 86.1441 46.6754 86.062C46.7856 85.98 46.9029 85.9377 47.0272 85.9377C47.0835 85.9377 47.1327 85.9518 47.1796 85.98C47.2265 86.0081 47.25 86.0433 47.25 86.0855C47.25 86.0972 47.2336 86.1277 47.1984 86.1723C47.1655 86.2192 47.1374 86.2543 47.121 86.2778C46.9122 86.5311 46.7434 86.7797 46.6144 87.0259C46.4408 87.3402 46.3072 87.6498 46.2134 87.9594C46.1172 88.2666 46.0703 88.602 46.0703 88.9655C46.0703 89.451 46.3658 89.6949 46.9568 89.6949C47.2335 89.6949 47.4915 89.6152 47.7284 89.4557C47.9653 89.2962 48.1553 89.0992 48.296 88.8694C48.4367 88.6395 48.5094 88.4284 48.5094 88.2361C48.5094 88.0204 48.439 87.8327 48.296 87.6732C48.1553 87.5138 47.9606 87.3449 47.7143 87.1667C47.5549 87.0494 47.4376 86.9532 47.3625 86.8805C47.2875 86.8078 47.2523 86.7445 47.2523 86.6953C47.2523 86.6226 47.3039 86.5616 47.4095 86.5147C47.515 86.4678 47.6369 86.4443 47.7777 86.4443C47.8574 86.4443 47.909 86.449 47.9348 86.4584C47.9582 86.4678 47.9723 86.4842 47.9723 86.51C47.9723 86.5217 47.9606 86.5428 47.9395 86.571C47.9184 86.5991 47.9067 86.6226 47.9067 86.6413C47.9067 86.6601 47.9676 86.7211 48.0919 86.8266C48.3382 87.0306 48.5446 87.237 48.7111 87.4458C48.8776 87.6545 48.9597 87.9007 48.9597 88.1845C48.9573 88.419 48.8682 88.6958 48.6876 89.0101Z" fill="#788335"/>
<path id="Vector_18" d="M53.7792 86.3858C53.6972 86.482 53.6174 86.5289 53.5447 86.5289C53.4955 86.5289 53.4392 86.5031 53.3782 86.4515C53.3172 86.3999 53.2727 86.3741 53.2492 86.3741C53.0827 86.3741 52.8177 86.489 52.4541 86.7165C52.0906 86.944 51.7177 87.2113 51.3378 87.5186C50.9555 87.8258 50.6647 88.0885 50.4606 88.3042L50.47 88.4708C50.9367 88.6865 51.4574 88.9164 52.0296 89.1626C52.6019 89.4089 52.9983 89.5543 53.2211 89.5965C53.3078 89.6082 53.3923 89.6176 53.479 89.6246C53.5658 89.6317 53.6268 89.634 53.6643 89.634C53.7206 89.634 53.7652 89.6364 53.8027 89.6434C53.8402 89.6504 53.859 89.6622 53.859 89.6809C53.859 89.7536 53.8027 89.8287 53.6878 89.9014C53.5728 89.9741 53.404 90.0116 53.1765 90.0116C52.9725 90.0116 52.6981 89.9366 52.351 89.7865C52.0038 89.6364 51.5934 89.437 51.1197 89.1908L50.538 88.9046C50.6178 89.6856 50.6577 90.1172 50.6577 90.1969C50.6577 90.2649 50.6248 90.3189 50.5568 90.3634C50.4888 90.4056 50.4161 90.4291 50.3363 90.4291C50.2871 90.4291 50.2472 90.3564 50.2167 90.2086C50.1863 90.0609 50.1487 89.7677 50.1065 89.3315L50.0408 88.7686C49.9681 88.7381 49.9025 88.6936 49.8462 88.6349C49.7899 88.5763 49.7641 88.5224 49.7641 88.4731C49.7641 88.4004 49.8251 88.3136 49.9494 88.2151C49.9423 87.8821 49.9259 87.4083 49.8978 86.7939C49.8696 86.1794 49.8509 85.7291 49.8368 85.4453L49.7899 84.1625C49.7899 83.9913 49.811 83.8435 49.8556 83.7192C49.8978 83.5973 49.9939 83.5339 50.1417 83.5339C50.198 83.5339 50.2332 83.5457 50.2519 83.5668C50.2707 83.5879 50.2801 83.6301 50.2801 83.6911C50.2801 83.9748 50.2988 84.6315 50.341 85.6611C50.3809 86.693 50.4137 87.4248 50.4372 87.8633C51.8092 86.5593 52.813 85.9074 53.4462 85.9074C53.5752 85.9074 53.6854 85.9308 53.7745 85.9777C53.8637 86.0246 53.9082 86.0715 53.9082 86.1208C53.9035 86.1982 53.8637 86.2896 53.7792 86.3858Z" fill="#788335"/>
<path id="Vector_19" d="M57.7264 87.8749C57.7264 87.9852 57.6443 88.2291 57.4825 88.6043C57.3183 88.9796 57.0721 89.3267 56.7437 89.648C56.4154 89.9669 56.0096 90.1288 55.5289 90.1288C55.1349 90.1288 54.8065 90.0068 54.5415 89.7605C54.2765 89.5143 54.1451 89.1367 54.1451 88.6254C54.1451 88.1446 54.2554 87.6709 54.4782 87.1995C54.6986 86.7281 54.9894 86.3435 55.3459 86.0456C55.7024 85.7477 56.073 85.5977 56.4529 85.5977C56.6804 85.5977 56.8727 85.6492 57.0298 85.7501C57.187 85.8509 57.2644 85.9987 57.2644 86.1887C57.2644 86.4044 57.1424 86.6132 56.9009 86.8172C56.6569 87.0212 56.3427 87.1995 55.9557 87.3519C55.5687 87.5067 55.1677 87.6169 54.7549 87.685C54.6822 87.9687 54.6447 88.2455 54.6447 88.5152C54.6447 88.8717 54.7291 89.1484 54.898 89.3454C55.0668 89.5424 55.3084 89.6409 55.6227 89.6409C56.0964 89.6409 56.481 89.4721 56.7766 89.1344C57.0721 88.7966 57.3183 88.4143 57.5153 87.9899C57.527 87.9664 57.5482 87.9171 57.581 87.8468C57.6115 87.7764 57.6396 87.7413 57.6631 87.7413C57.7053 87.7366 57.7264 87.7835 57.7264 87.8749ZM56.6968 86.0573C56.596 86.001 56.4764 85.9752 56.3403 85.9752C56.1058 85.9752 55.8807 86.0526 55.6672 86.2051C55.4515 86.3599 55.2709 86.5428 55.1278 86.7586C54.9824 86.9743 54.8886 87.1643 54.8464 87.3308C55.1302 87.3003 55.428 87.2206 55.7423 87.0916C56.0566 86.9626 56.3192 86.8219 56.5326 86.6671C56.7461 86.5123 56.8516 86.388 56.8516 86.2895C56.8493 86.1887 56.7977 86.1113 56.6968 86.0573Z" fill="#788335"/>
<path id="Vector_20" d="M61.7603 83.7777C61.7603 83.8997 61.7533 84.1413 61.7415 84.5024C61.7298 84.8636 61.7228 85.2248 61.7228 85.586C61.7228 86.2872 61.7392 87.0025 61.7697 87.7319C61.8002 88.4613 61.826 88.9397 61.8424 89.1672C61.8424 89.2047 61.8447 89.2446 61.8518 89.2868C61.8588 89.329 61.8635 89.3689 61.8705 89.4064C61.894 89.5776 61.908 89.6832 61.908 89.7207C61.908 89.7817 61.8635 89.8403 61.7744 89.8966C61.6852 89.9529 61.6149 89.9787 61.5656 89.9787C61.4976 89.9787 61.4531 89.9529 61.4319 89.9013C61.4108 89.8497 61.3991 89.777 61.3991 89.6855C61.3991 89.3478 61.4085 88.9937 61.4273 88.6231L61.4366 88.1071C61.4366 87.9359 61.4343 87.7084 61.4273 87.4294C61.4202 87.1503 61.4108 86.9134 61.3991 86.7234C61.0848 87.7319 60.7307 88.5692 60.332 89.2305C59.9357 89.8919 59.5065 90.2226 59.0444 90.2226C58.8357 90.2226 58.6575 90.1241 58.5144 89.9271C58.369 89.7301 58.2986 89.4463 58.2986 89.0781C58.2986 88.5926 58.4628 88.0626 58.7935 87.4903C59.1218 86.9181 59.4971 86.4256 59.9192 86.0128C60.3414 85.6 60.6533 85.3936 60.8574 85.3936C61.0544 85.3936 61.1529 85.4593 61.1529 85.5883C61.1529 85.6751 61.1247 85.7736 61.0661 85.8885C61.0074 86.0034 60.9418 86.1043 60.8714 86.1981C60.8011 86.2895 60.7589 86.3364 60.7471 86.3364C60.7354 86.3364 60.7213 86.3318 60.7049 86.3224C60.6885 86.313 60.6815 86.3036 60.6815 86.2895C60.6815 86.2591 60.6979 86.2075 60.7284 86.1324C60.7588 86.0597 60.7753 86.0104 60.7753 85.9846C60.7753 85.9542 60.7729 85.9331 60.7659 85.919C60.7588 85.9073 60.7424 85.9002 60.7096 85.9002C60.5806 85.9002 60.3484 86.0761 60.013 86.4303C59.6777 86.7844 59.3775 87.2042 59.1125 87.6897C58.8474 88.1752 58.7161 88.6278 58.7161 89.0476C58.7161 89.1953 58.7466 89.3337 58.8076 89.4627C58.8686 89.5917 58.9694 89.6574 59.1125 89.6574C59.5628 89.6574 59.9779 89.2774 60.3625 88.5176C60.7471 87.7577 61.0802 86.8946 61.3639 85.9284L61.3452 85.1521C61.3264 84.4696 61.317 84.1061 61.317 84.0639C61.317 83.6956 61.3311 83.4306 61.3639 83.2688C61.3757 83.2078 61.3897 83.1633 61.4062 83.1398C61.4226 83.1164 61.4531 83.1023 61.5023 83.1023C61.5633 83.1023 61.6243 83.1234 61.6876 83.1633C61.7486 83.2031 61.7791 83.2571 61.7791 83.3251L61.7603 83.7777Z" fill="#788335"/>
<path id="Vector_21" d="M69.3848 89.634C69.427 89.6809 69.4505 89.7185 69.4505 89.7489C69.4505 89.8216 69.42 89.9084 69.359 90.0022C69.298 90.0984 69.2347 90.1453 69.1737 90.1453C69.0682 90.1453 68.9884 90.0796 68.9345 89.9506C68.8782 89.8216 68.8524 89.6715 68.8524 89.498C68.8524 89.3502 68.8618 88.907 68.8806 88.1682L68.8899 87.8164C68.8899 87.6757 68.8524 87.5725 68.7797 87.5115C68.503 87.9782 68.245 88.3863 68.0034 88.7311C67.7642 89.0758 67.4593 89.3995 67.0888 89.7044C66.7205 90.0093 66.3312 90.1617 65.9255 90.1617C65.7285 90.1617 65.576 90.1007 65.4682 89.9764C65.3603 89.8545 65.3063 89.6926 65.3063 89.4956C65.3063 89.2494 65.4166 88.9117 65.6394 88.4848C65.8598 88.058 66.1436 87.6241 66.4884 87.1832C66.8331 86.7423 67.1779 86.3811 67.5226 86.0997C67.7501 85.9144 67.9307 85.7901 68.0667 85.7268C68.2028 85.6611 68.3224 85.6306 68.4279 85.6306C68.5264 85.6306 68.6273 85.6611 68.7328 85.7221C68.8383 85.783 68.9275 85.8698 69.0002 85.9801C69.0729 86.0903 69.1104 86.2169 69.1104 86.3576C69.1104 86.5476 69.0588 86.7306 68.9533 86.9018L69.1104 86.8548C69.1784 86.8548 69.2183 86.9369 69.23 87.1034C69.237 87.202 69.2441 87.4013 69.2535 87.7038C69.2628 88.0064 69.2699 88.255 69.2769 88.452C69.2839 88.656 69.2886 88.853 69.2957 89.043C69.3027 89.233 69.3074 89.3854 69.3144 89.4956C69.3168 89.5426 69.3402 89.5871 69.3848 89.634ZM67.0114 89.2963C67.3186 89.05 67.5953 88.7569 67.8369 88.4145C68.0808 88.0721 68.3482 87.6523 68.6437 87.1551C68.7164 86.9698 68.7539 86.7704 68.7539 86.5547C68.7539 86.4257 68.7164 86.3131 68.639 86.2169C68.5616 86.1208 68.4584 86.0739 68.3294 86.0739C68.1746 86.0739 67.9776 86.1794 67.7384 86.3881C67.4617 86.6227 67.1685 86.9346 66.8613 87.3263C66.554 87.7179 66.2984 88.1025 66.0943 88.4848C65.8903 88.8671 65.7895 89.1673 65.7895 89.3901C65.7895 89.5754 65.8762 89.6668 66.0474 89.6668C66.3852 89.6668 66.7041 89.5425 67.0114 89.2963Z" fill="#788335"/>
<path id="Vector_22" d="M74.3263 86.5101C74.2372 86.5664 74.0754 86.6086 73.8408 86.6391C73.2756 86.7376 72.9567 86.7939 72.891 86.8056L72.2906 86.9065C72.2906 87.2278 72.2953 87.5608 72.3047 87.9126C72.3141 88.2644 72.3281 88.5716 72.3469 88.8367C72.3703 89.1931 72.4149 89.4675 72.4759 89.6575C72.5369 89.8475 72.572 89.9554 72.5767 89.9812C72.5767 90.0421 72.5392 90.0984 72.4618 90.1524C72.3844 90.204 72.3117 90.2298 72.246 90.2298C72.2085 90.2298 72.178 90.218 72.1546 90.1969C72.1311 90.1758 72.1077 90.1406 72.0889 90.0914C72.0514 90.0046 72.0162 89.8451 71.9834 89.6106C71.9505 89.3761 71.9224 89.1181 71.906 88.8343C71.8872 88.581 71.8731 88.2879 71.8638 87.9525C71.8544 87.6171 71.8497 87.2935 71.8497 86.9792C71.5049 87.0355 71.1508 87.1035 70.7873 87.1832C70.4613 87.2513 70.2666 87.2841 70.2056 87.2841C70.1329 87.2841 70.0626 87.263 69.9969 87.2184C69.9312 87.1738 69.9008 87.1176 69.9008 87.0425C69.9008 86.9628 69.9289 86.9112 69.9828 86.8854C70.0391 86.8619 70.1306 86.8479 70.2596 86.8479C70.3511 86.8479 70.4871 86.8314 70.6653 86.7963C70.8436 86.7634 70.9585 86.74 71.0077 86.7259C71.4205 86.6462 71.6996 86.5946 71.8473 86.5688C71.8473 86.4398 71.8403 86.2709 71.8286 86.0622C71.8169 85.7784 71.8098 85.5626 71.8098 85.4149C71.8098 85.1757 71.8169 84.988 71.8333 84.8567C71.8497 84.7254 71.8778 84.6058 71.92 84.5002C71.9693 84.3783 72.0608 84.3149 72.1968 84.3149C72.2531 84.3149 72.2883 84.3243 72.307 84.3431C72.3258 84.3618 72.3352 84.3947 72.3352 84.4439C72.3352 84.4815 72.3187 84.5893 72.2883 84.7676C72.2578 84.9458 72.2414 85.1827 72.2414 85.4782C72.2414 85.7057 72.2484 85.9613 72.2601 86.2451L72.2695 86.4937C72.5462 86.4515 73.095 86.3366 73.9135 86.1513C73.9628 86.1396 74.005 86.095 74.0378 86.0223C74.0707 85.9496 74.1082 85.9121 74.1434 85.9121C74.2114 85.9121 74.2794 85.9496 74.3521 86.027C74.4225 86.1044 74.4576 86.1818 74.4576 86.2615C74.4623 86.3741 74.4154 86.4539 74.3263 86.5101Z" fill="#788335"/>
<path id="Vector_23" d="M80.5343 86.9346C80.4616 87.4763 80.4194 87.7812 80.4147 87.8492C80.3349 88.6067 80.2786 89.1837 80.2435 89.58C80.2106 89.9764 80.1919 90.3352 80.1919 90.6565C80.1919 90.9215 80.2106 91.1303 80.2528 91.2851C80.2927 91.4398 80.3349 91.5595 80.3818 91.6486C80.4287 91.7377 80.4522 91.7916 80.4522 91.8104C80.4522 91.8667 80.4029 91.9159 80.3044 91.9582C80.2059 92.0004 80.1051 92.0238 79.9995 92.0238C79.9198 92.0238 79.8565 91.9159 79.8096 91.7002C79.7627 91.4844 79.7392 91.149 79.7392 90.694C79.7392 90.3493 79.7721 89.8849 79.8401 89.3009L79.9784 88.0274C79.8119 88.3464 79.6079 88.6536 79.364 88.9468C79.1201 89.24 78.8691 89.3854 78.6111 89.3854C78.3719 89.3854 78.1562 89.1766 77.9638 88.7568C77.7739 88.3394 77.6238 87.8656 77.5159 87.3356C77.408 86.8056 77.3541 86.4186 77.3541 86.1723C77.3541 86.0175 77.401 85.9425 77.4924 85.9425C77.6285 85.9425 77.7129 86.0691 77.7504 86.3201C77.9849 88.0321 78.3109 88.8858 78.7284 88.8858C78.8949 88.8858 79.0403 88.8202 79.167 88.6865C79.2936 88.5551 79.4414 88.3488 79.6149 88.072C79.6947 87.943 79.7814 87.7695 79.8729 87.556C79.9644 87.3403 80.0371 87.162 80.0863 87.0213L80.152 86.0879C80.1637 85.9472 80.1825 85.8463 80.2083 85.7877C80.2317 85.7291 80.281 85.7009 80.356 85.7009C80.417 85.7009 80.478 85.7361 80.5413 85.8065C80.6023 85.8768 80.6328 85.9472 80.6328 86.0152C80.6375 86.1512 80.6023 86.4608 80.5343 86.9346Z" fill="#788335"/>
<path id="Vector_24" d="M84.4392 89.0101C84.261 89.3243 84.0077 89.594 83.6817 89.8168C83.3557 90.042 82.9828 90.1546 82.5653 90.1546C82.1526 90.1546 81.8477 90.0396 81.6507 89.8122C81.4537 89.5847 81.3552 89.3009 81.3552 88.9632C81.3552 88.6677 81.4091 88.3018 81.517 87.8656C81.6249 87.4293 81.7773 87.0377 81.9743 86.6929C81.986 86.6695 82.0376 86.578 82.1268 86.4209C82.2159 86.2637 82.3167 86.1441 82.4269 86.062C82.5372 85.98 82.6544 85.9377 82.7787 85.9377C82.835 85.9377 82.8843 85.9518 82.9312 85.98C82.9781 86.0081 83.0015 86.0433 83.0015 86.0855C83.0015 86.0972 82.9851 86.1277 82.95 86.1723C82.9171 86.2192 82.889 86.2543 82.8726 86.2778C82.6638 86.5311 82.495 86.7797 82.366 87.0259C82.1948 87.3402 82.0587 87.6498 81.9649 87.9594C81.8688 88.2666 81.8219 88.602 81.8219 88.9655C81.8219 89.451 82.1174 89.6949 82.7084 89.6949C82.9851 89.6949 83.2431 89.6152 83.48 89.4557C83.7169 89.2962 83.9068 89.0992 84.0475 88.8694C84.1883 88.6395 84.261 88.4284 84.261 88.2361C84.261 88.0204 84.1906 87.8327 84.0475 87.6732C83.9068 87.5138 83.7122 87.3449 83.4659 87.1667C83.3064 87.0494 83.1892 86.9532 83.1141 86.8805C83.0391 86.8078 83.0039 86.7445 83.0039 86.6953C83.0039 86.6226 83.0555 86.5616 83.161 86.5147C83.2666 86.4678 83.3885 86.4443 83.5292 86.4443C83.609 86.4443 83.6606 86.449 83.6864 86.4584C83.7098 86.4678 83.7239 86.4842 83.7239 86.51C83.7239 86.5217 83.7122 86.5428 83.6911 86.571C83.67 86.5991 83.6582 86.6226 83.6582 86.6413C83.6582 86.6601 83.7192 86.7211 83.8435 86.8266C84.0898 87.0306 84.2962 87.237 84.4627 87.4458C84.6292 87.6545 84.7113 87.9007 84.7113 88.1845C84.7066 88.419 84.6175 88.6958 84.4392 89.0101Z" fill="#788335"/>
<path id="Vector_25" d="M89.2212 90.1639C89.165 90.2202 89.0899 90.246 88.9914 90.246C88.8695 90.246 88.7569 90.117 88.6537 89.8591C88.5528 89.6011 88.4895 89.3337 88.4637 89.057C88.4379 88.792 88.4215 88.2572 88.4074 87.4504C88.4004 87.3215 88.398 87.1901 88.398 87.0588C88.398 86.9275 88.3957 86.8149 88.3887 86.7211C88.2104 87.1456 87.9665 87.6287 87.6593 88.1705C87.352 88.7122 87.0425 89.1766 86.7305 89.5636C86.4186 89.9505 86.1653 90.1452 85.9683 90.1452C85.7643 90.1452 85.6306 90.0373 85.5673 89.8215C85.5016 89.6058 85.4711 89.2657 85.4711 88.7967C85.4711 88.3604 85.5274 87.8632 85.6423 87.3097C85.7573 86.7562 85.8862 86.3341 86.034 86.0456C86.095 85.9166 86.1489 85.8299 86.1911 85.783C86.2334 85.736 86.2826 85.7126 86.3389 85.7126C86.4937 85.7126 86.5687 85.7431 86.5687 85.8041C86.5687 85.8346 86.5382 85.9049 86.4773 86.0175C86.3107 86.3247 86.1677 86.6953 86.0434 87.1245C85.9191 87.556 85.8581 88.1329 85.8581 88.86C85.8581 89.3454 85.9261 89.5893 86.0621 89.5893C86.2216 89.5893 86.4397 89.4135 86.7141 89.0593C86.9885 88.7052 87.2606 88.283 87.5303 87.7905C87.8 87.298 88.0064 86.8712 88.1494 86.5077C88.1987 86.3857 88.255 86.1934 88.316 85.9354C88.3347 85.8299 88.3535 85.7548 88.3723 85.7102C88.391 85.6633 88.4121 85.6399 88.4379 85.6399C88.5059 85.6399 88.5786 85.668 88.6584 85.722C88.7381 85.7783 88.778 85.8369 88.778 85.8979C88.778 86.1934 88.7897 86.7 88.8108 87.4176C88.8319 88.1353 88.8577 88.6325 88.8882 88.9092C88.9117 89.1484 88.9586 89.3361 89.0219 89.4721C89.0876 89.6081 89.1485 89.7137 89.2119 89.7911C89.2728 89.8684 89.3033 89.9154 89.3033 89.9341C89.3033 90.0326 89.2775 90.11 89.2212 90.1639Z" fill="#788335"/>
<path id="Vector_26" d="M93.1121 86.3927C93.0347 86.4631 92.969 86.4982 92.9128 86.4982C92.8705 86.4982 92.8283 86.4795 92.7885 86.442C92.7486 86.4044 92.704 86.3528 92.6548 86.2848C92.6126 86.2238 92.5539 86.1699 92.4836 86.1277C92.4132 86.0855 92.3405 86.062 92.2678 86.062C92.0896 86.062 91.8503 86.2965 91.5478 86.768C91.2453 87.2394 90.9498 87.8304 90.6613 88.5457C90.6683 88.6864 90.6777 88.8646 90.6941 89.0804C90.7105 89.2962 90.7199 89.4556 90.7269 89.5612L90.7551 89.9294C90.7551 90.0162 90.7363 90.0912 90.6988 90.1545C90.6613 90.2202 90.5933 90.2507 90.4948 90.2507C90.3892 90.2507 90.3236 90.11 90.2907 89.8309C90.2602 89.5518 90.2415 89.1437 90.2344 88.609C90.2274 88.473 90.2227 88.2807 90.2204 88.0274C90.218 87.7741 90.2086 87.4739 90.1969 87.1221C90.1781 86.5921 90.1688 86.2145 90.1688 85.987C90.1688 85.8463 90.2555 85.7736 90.4268 85.7736C90.5323 85.7736 90.5933 85.8181 90.6167 85.9072C90.6378 85.9964 90.6495 86.1676 90.6495 86.4185V87.8867C90.8348 87.4129 91.0342 87.0048 91.2499 86.6601C91.4657 86.3153 91.6768 86.0526 91.8832 85.8697C92.0896 85.6891 92.2725 85.5977 92.432 85.5977C92.568 85.5977 92.697 85.6281 92.8189 85.6891C92.9409 85.7501 93.0394 85.8298 93.1144 85.9237C93.1871 86.0198 93.2247 86.1089 93.2247 86.1957C93.227 86.259 93.1895 86.3224 93.1121 86.3927Z" fill="#788335"/>
<path id="Vector_27" d="M99.836 83.7777C99.836 83.8997 99.829 84.1413 99.8173 84.5024C99.8055 84.8636 99.7985 85.2248 99.7985 85.586C99.7985 86.2872 99.8149 87.0025 99.8454 87.7319C99.8759 88.4613 99.9017 88.9397 99.9181 89.1672C99.9181 89.2047 99.9205 89.2446 99.9275 89.2868C99.9345 89.329 99.9392 89.3689 99.9463 89.4064C99.9697 89.5776 99.9838 89.6832 99.9838 89.7207C99.9838 89.7817 99.9392 89.8403 99.8501 89.8966C99.761 89.9529 99.6906 89.9787 99.6414 89.9787C99.5734 89.9787 99.5288 89.9529 99.5077 89.9013C99.4866 89.8497 99.4749 89.777 99.4749 89.6855C99.4749 89.3478 99.4842 88.9937 99.503 88.6231L99.5124 88.1071C99.5124 87.9359 99.51 87.7084 99.503 87.4294C99.496 87.1503 99.4866 86.9134 99.4749 86.7234C99.1606 87.7319 98.8064 88.5692 98.4078 89.2305C98.0114 89.8919 97.5822 90.2226 97.1202 90.2226C96.9115 90.2226 96.7332 90.1241 96.5902 89.9271C96.4447 89.7301 96.3744 89.4463 96.3744 89.0781C96.3744 88.5926 96.5386 88.0626 96.8692 87.4903C97.1976 86.9181 97.5728 86.4256 97.995 86.0128C98.4171 85.6 98.7291 85.3936 98.9331 85.3936C99.1301 85.3936 99.2286 85.4593 99.2286 85.5883C99.2286 85.6751 99.2005 85.7736 99.1418 85.8885C99.0832 86.0034 99.0175 86.1043 98.9472 86.1981C98.8768 86.2895 98.8346 86.3364 98.8229 86.3364C98.8111 86.3364 98.7971 86.3318 98.7807 86.3224C98.7642 86.313 98.7572 86.3036 98.7572 86.2895C98.7572 86.2591 98.7736 86.2075 98.8041 86.1324C98.8346 86.0597 98.851 86.0104 98.851 85.9846C98.851 85.9542 98.8487 85.9331 98.8416 85.919C98.8346 85.9073 98.8182 85.9002 98.7853 85.9002C98.6563 85.9002 98.4242 86.0761 98.0888 86.4303C97.7534 86.7844 97.4532 87.2042 97.1882 87.6897C96.9232 88.1752 96.7918 88.6278 96.7918 89.0476C96.7918 89.1953 96.8223 89.3337 96.8833 89.4627C96.9443 89.5917 97.0451 89.6574 97.1882 89.6574C97.6361 89.6574 98.0536 89.2774 98.4382 88.5176C98.8229 87.7577 99.1559 86.8946 99.4397 85.9284L99.4209 85.1521C99.4022 84.4696 99.3928 84.1061 99.3928 84.0639C99.3928 83.6956 99.4068 83.4306 99.4397 83.2688C99.4514 83.2078 99.4655 83.1633 99.4819 83.1398C99.4983 83.1164 99.5288 83.1023 99.578 83.1023C99.639 83.1023 99.7 83.1234 99.7633 83.1633C99.8243 83.2031 99.8548 83.2571 99.8548 83.3251L99.836 83.7777Z" fill="#788335"/>
<path id="Vector_28" d="M103.851 89.0101C103.673 89.3243 103.42 89.594 103.094 89.8168C102.768 90.042 102.395 90.1546 101.977 90.1546C101.564 90.1546 101.26 90.0396 101.063 89.8122C100.866 89.5847 100.767 89.3009 100.767 88.9632C100.767 88.6677 100.821 88.3018 100.929 87.8656C101.037 87.4293 101.189 87.0377 101.386 86.6929C101.398 86.6695 101.45 86.578 101.539 86.4209C101.628 86.2637 101.729 86.1441 101.839 86.062C101.949 85.98 102.066 85.9377 102.191 85.9377C102.247 85.9377 102.296 85.9518 102.343 85.98C102.39 86.0081 102.413 86.0433 102.413 86.0855C102.413 86.0972 102.397 86.1277 102.362 86.1723C102.329 86.2192 102.301 86.2543 102.284 86.2778C102.076 86.5311 101.907 86.7797 101.778 87.0259C101.607 87.3402 101.471 87.6498 101.377 87.9594C101.281 88.2666 101.234 88.602 101.234 88.9655C101.234 89.451 101.529 89.6949 102.12 89.6949C102.397 89.6949 102.655 89.6152 102.892 89.4557C103.129 89.2962 103.319 89.0992 103.459 88.8694C103.6 88.6395 103.671 88.4284 103.671 88.2361C103.671 88.0204 103.6 87.8327 103.459 87.6732C103.319 87.5138 103.124 87.3449 102.878 87.1667C102.718 87.0494 102.601 86.9532 102.526 86.8805C102.451 86.8078 102.416 86.7445 102.416 86.6953C102.416 86.6226 102.467 86.5616 102.573 86.5147C102.679 86.4678 102.8 86.4443 102.941 86.4443C103.021 86.4443 103.073 86.449 103.098 86.4584C103.122 86.4678 103.136 86.4842 103.136 86.51C103.136 86.5217 103.124 86.5428 103.103 86.571C103.082 86.5991 103.07 86.6226 103.07 86.6413C103.07 86.6601 103.131 86.7211 103.255 86.8266C103.502 87.0306 103.708 87.237 103.875 87.4458C104.041 87.6545 104.123 87.9007 104.123 88.1845C104.119 88.419 104.029 88.6958 103.851 89.0101Z" fill="#788335"/>
<path id="Vector_29" d="M107.803 89.0101C107.625 89.3243 107.371 89.594 107.045 89.8168C106.719 90.042 106.347 90.1546 105.929 90.1546C105.516 90.1546 105.211 90.0396 105.014 89.8122C104.817 89.5847 104.719 89.3009 104.719 88.9632C104.719 88.6677 104.773 88.3018 104.881 87.8656C104.989 87.4293 105.141 87.0377 105.338 86.6929C105.35 86.6695 105.401 86.578 105.491 86.4209C105.58 86.2637 105.68 86.1441 105.791 86.062C105.901 85.98 106.018 85.9377 106.143 85.9377C106.199 85.9377 106.248 85.9518 106.295 85.98C106.342 86.0081 106.365 86.0433 106.365 86.0855C106.365 86.0972 106.349 86.1277 106.314 86.1723C106.281 86.2192 106.253 86.2543 106.236 86.2778C106.028 86.5311 105.859 86.7797 105.73 87.0259C105.559 87.3402 105.423 87.6498 105.329 87.9594C105.233 88.2666 105.186 88.602 105.186 88.9655C105.186 89.451 105.481 89.6949 106.072 89.6949C106.349 89.6949 106.607 89.6152 106.844 89.4557C107.081 89.2962 107.271 89.0992 107.411 88.8694C107.552 88.6395 107.625 88.4284 107.625 88.2361C107.625 88.0204 107.554 87.8327 107.411 87.6732C107.271 87.5138 107.076 87.3449 106.83 87.1667C106.67 87.0494 106.553 86.9532 106.478 86.8805C106.403 86.8078 106.368 86.7445 106.368 86.6953C106.368 86.6226 106.419 86.5616 106.525 86.5147C106.63 86.4678 106.752 86.4443 106.893 86.4443C106.973 86.4443 107.024 86.449 107.05 86.4584C107.074 86.4678 107.088 86.4842 107.088 86.51C107.088 86.5217 107.076 86.5428 107.055 86.571C107.034 86.5991 107.022 86.6226 107.022 86.6413C107.022 86.6601 107.083 86.7211 107.207 86.8266C107.454 87.0306 107.66 87.237 107.826 87.4458C107.993 87.6545 108.075 87.9007 108.075 88.1845C108.07 88.419 107.981 88.6958 107.803 89.0101Z" fill="#788335"/>
<path id="Vector_30" d="M111.87 86.3927C111.792 86.4631 111.727 86.4982 111.67 86.4982C111.628 86.4982 111.586 86.4795 111.546 86.442C111.506 86.4044 111.462 86.3528 111.412 86.2848C111.37 86.2238 111.312 86.1699 111.241 86.1277C111.171 86.0855 111.098 86.062 111.025 86.062C110.847 86.062 110.608 86.2965 110.305 86.768C110.003 87.2394 109.707 87.8304 109.419 88.5457C109.426 88.6864 109.435 88.8646 109.452 89.0804C109.468 89.2962 109.478 89.4556 109.485 89.5612L109.513 89.9294C109.513 90.0162 109.494 90.0912 109.456 90.1545C109.419 90.2202 109.351 90.2507 109.252 90.2507C109.147 90.2507 109.081 90.11 109.048 89.8309C109.018 89.5518 108.999 89.1437 108.992 88.609C108.985 88.473 108.98 88.2807 108.978 88.0274C108.976 87.7741 108.966 87.4739 108.955 87.1221C108.936 86.5921 108.926 86.2145 108.926 85.987C108.926 85.8463 109.013 85.7736 109.184 85.7736C109.29 85.7736 109.351 85.8181 109.374 85.9072C109.395 85.9964 109.407 86.1676 109.407 86.4185V87.8867C109.592 87.4129 109.792 87.0048 110.008 86.6601C110.223 86.3153 110.434 86.0526 110.641 85.8697C110.847 85.6891 111.03 85.5977 111.19 85.5977C111.326 85.5977 111.455 85.6281 111.577 85.6891C111.699 85.7501 111.797 85.8298 111.872 85.9237C111.945 86.0198 111.982 86.1089 111.982 86.1957C111.985 86.259 111.945 86.3224 111.87 86.3927Z" fill="#788335"/>
<path id="Vector_31" d="M115.634 89.5777C115.416 89.8263 115.127 90.028 114.771 90.1781C114.414 90.3282 114.041 90.4033 113.654 90.4033C113.389 90.4033 113.211 90.3798 113.12 90.3306C113.028 90.2813 112.981 90.2133 112.981 90.1265C112.981 90.0702 113.052 89.9741 113.195 89.8357C113.335 89.6973 113.432 89.627 113.481 89.627C113.554 89.627 113.591 89.6434 113.591 89.6739C113.591 89.6973 113.575 89.7231 113.544 89.7466C113.514 89.77 113.497 89.7935 113.497 89.8122C113.497 89.838 113.535 89.8615 113.612 89.885C113.69 89.9108 113.783 89.9225 113.894 89.9225C114.152 89.9225 114.412 89.8756 114.675 89.7794C114.935 89.6833 115.151 89.559 115.317 89.4065C115.484 89.2517 115.566 89.0899 115.566 88.9163C115.566 88.7498 115.514 88.6185 115.409 88.52C115.303 88.4215 115.174 88.3488 115.017 88.3042C114.86 88.2573 114.597 88.1917 114.227 88.1049C113.821 88.0134 113.504 87.9313 113.282 87.861C113.056 87.7906 112.876 87.7015 112.742 87.5936C112.606 87.4857 112.538 87.3497 112.538 87.1832C112.538 86.8877 112.684 86.618 112.972 86.3717C113.26 86.1255 113.593 85.9308 113.969 85.7901C114.344 85.6494 114.632 85.5767 114.836 85.5767C115.045 85.5767 115.151 85.6376 115.151 85.7619C115.151 85.8347 115.125 85.9167 115.078 86.0059C115.029 86.095 114.954 86.1395 114.858 86.1395C114.82 86.1395 114.78 86.1255 114.738 86.0973C114.696 86.0692 114.651 86.0551 114.609 86.0551C114.485 86.0551 114.292 86.095 114.027 86.1747C113.762 86.2544 113.523 86.3741 113.307 86.5335C113.092 86.693 112.984 86.8877 112.984 87.1152C112.984 87.2629 113.068 87.3732 113.237 87.4435C113.406 87.5139 113.722 87.603 114.182 87.7062C114.238 87.7249 114.292 87.739 114.349 87.7484C114.405 87.7578 114.454 87.7695 114.496 87.7812C114.97 87.8915 115.334 88.0181 115.585 88.1588C115.838 88.2995 115.962 88.513 115.962 88.7968C115.962 89.0688 115.854 89.3291 115.634 89.5777Z" fill="#788335"/>
<path id="Vector_32" d="M120.702 86.5101C120.613 86.5664 120.451 86.6086 120.217 86.6391C119.651 86.7376 119.332 86.7939 119.267 86.8056L118.666 86.9065C118.666 87.2278 118.671 87.5608 118.68 87.9126C118.69 88.2644 118.704 88.5716 118.723 88.8367C118.746 89.1931 118.791 89.4675 118.852 89.6575C118.913 89.8475 118.948 89.9554 118.952 89.9812C118.952 90.0421 118.915 90.0984 118.838 90.1524C118.76 90.204 118.687 90.2298 118.622 90.2298C118.584 90.2298 118.554 90.218 118.53 90.1969C118.507 90.1758 118.483 90.1406 118.465 90.0914C118.427 90.0046 118.392 89.8451 118.359 89.6106C118.326 89.3761 118.298 89.1181 118.282 88.8343C118.263 88.581 118.249 88.2879 118.239 87.9525C118.23 87.6171 118.225 87.2935 118.225 86.9792C117.881 87.0355 117.527 87.1035 117.163 87.1832C116.837 87.2513 116.642 87.2841 116.581 87.2841C116.509 87.2841 116.438 87.263 116.373 87.2184C116.307 87.1738 116.276 87.1176 116.276 87.0425C116.276 86.9628 116.305 86.9112 116.359 86.8854C116.415 86.8619 116.506 86.8479 116.635 86.8479C116.727 86.8479 116.863 86.8314 117.041 86.7963C117.219 86.7634 117.334 86.74 117.383 86.7259C117.796 86.6462 118.075 86.5946 118.223 86.5688C118.223 86.4398 118.216 86.2709 118.204 86.0622C118.193 85.7784 118.186 85.5626 118.186 85.4149C118.186 85.1757 118.193 84.988 118.209 84.8567C118.225 84.7254 118.254 84.6058 118.296 84.5002C118.345 84.3783 118.436 84.3149 118.573 84.3149C118.629 84.3149 118.664 84.3243 118.683 84.3431C118.702 84.3618 118.711 84.3947 118.711 84.4439C118.711 84.4815 118.694 84.5893 118.664 84.7676C118.634 84.9458 118.617 85.1827 118.617 85.4782C118.617 85.7057 118.624 85.9613 118.636 86.2451L118.645 86.4937C118.922 86.4515 119.471 86.3366 120.289 86.1513C120.339 86.1396 120.381 86.095 120.414 86.0223C120.446 85.9496 120.484 85.9121 120.519 85.9121C120.587 85.9121 120.655 85.9496 120.728 86.027C120.798 86.1044 120.833 86.1818 120.833 86.2615C120.836 86.3741 120.791 86.4539 120.702 86.5101Z" fill="#788335"/>
<path id="Vector_33" d="M124.86 87.8749C124.86 87.9852 124.778 88.2291 124.616 88.6043C124.452 88.9796 124.206 89.3267 123.878 89.648C123.549 89.9669 123.143 90.1288 122.663 90.1288C122.269 90.1288 121.94 90.0068 121.675 89.7605C121.41 89.5143 121.279 89.1367 121.279 88.6254C121.279 88.1446 121.389 87.6709 121.612 87.1995C121.832 86.7281 122.123 86.3435 122.48 86.0456C122.836 85.7477 123.207 85.5977 123.587 85.5977C123.814 85.5977 124.007 85.6492 124.164 85.7501C124.321 85.8509 124.398 85.9987 124.398 86.1887C124.398 86.4044 124.276 86.6132 124.035 86.8172C123.791 87.0212 123.477 87.1995 123.09 87.3519C122.703 87.5067 122.302 87.6169 121.889 87.685C121.816 87.9687 121.779 88.2455 121.779 88.5152C121.779 88.8717 121.863 89.1484 122.032 89.3454C122.201 89.5424 122.442 89.6409 122.757 89.6409C123.23 89.6409 123.615 89.4721 123.91 89.1344C124.206 88.7966 124.452 88.4143 124.649 87.9899C124.661 87.9664 124.682 87.9171 124.715 87.8468C124.745 87.7764 124.773 87.7413 124.797 87.7413C124.839 87.7366 124.86 87.7835 124.86 87.8749ZM123.831 86.0573C123.73 86.001 123.61 85.9752 123.477 85.9752C123.242 85.9752 123.017 86.0526 122.803 86.2051C122.588 86.3599 122.407 86.5428 122.264 86.7586C122.119 86.9743 122.025 87.1643 121.983 87.3308C122.266 87.3003 122.564 87.2206 122.878 87.0916C123.193 86.9626 123.455 86.8219 123.669 86.6671C123.882 86.5123 123.988 86.388 123.988 86.2895C123.983 86.1887 123.934 86.1113 123.831 86.0573Z" fill="#788335"/>
<path id="Vector_34" d="M128.831 88.8905C128.266 89.1298 127.527 89.2846 126.615 89.3526C126.603 89.77 126.596 90.1124 126.596 90.3775C126.596 90.7292 126.612 91.0482 126.643 91.3367C126.654 91.4469 126.661 91.5243 126.661 91.5665C126.661 91.665 126.64 91.7494 126.596 91.8198C126.554 91.8902 126.49 91.9253 126.41 91.9253C126.3 91.9253 126.239 91.8855 126.225 91.8057C126.218 91.7002 126.211 91.5384 126.202 91.3203C126.192 91.1021 126.188 90.8817 126.188 90.6612L126.197 89.369C126.167 89.369 126.11 89.3713 126.026 89.3784C125.944 89.3854 125.862 89.3877 125.782 89.3877C125.634 89.3877 125.561 89.2869 125.561 89.0829C125.561 88.9351 125.599 88.8624 125.672 88.8624C125.695 88.8624 125.77 88.8812 125.892 88.9187C126.014 88.9562 126.12 88.975 126.206 88.975L126.197 86.3623C126.148 86.3553 126.047 86.3459 125.892 86.3295C125.737 86.3131 125.627 86.2849 125.554 86.2427C125.484 86.2005 125.449 86.1372 125.449 86.0574C125.449 85.8979 125.479 85.8182 125.54 85.8182C125.608 85.8182 125.69 85.8417 125.789 85.8909C125.801 85.898 125.838 85.9144 125.899 85.9425C125.96 85.9707 126.047 85.9894 126.157 86.0035C126.195 85.905 126.23 85.837 126.263 85.7994C126.296 85.7619 126.364 85.7432 126.462 85.7432C126.584 85.7432 126.647 85.7666 126.647 85.8159C126.647 85.8346 126.638 85.8675 126.619 85.912C126.6 85.9566 126.591 86.0035 126.591 86.0457C126.973 86.102 127.405 86.2146 127.888 86.3834C128.371 86.5523 128.789 86.7657 129.143 87.026C129.497 87.284 129.673 87.5678 129.673 87.875C129.68 88.3112 129.396 88.6513 128.831 88.8905ZM128.84 87.2113C128.545 87.0026 128.188 86.829 127.773 86.6954C127.358 86.5593 126.959 86.4608 126.577 86.3998C126.589 86.7563 126.598 87.2301 126.605 87.8164C126.612 88.4051 126.615 88.7944 126.615 88.9844C126.983 88.9844 127.377 88.9375 127.797 88.8413C128.214 88.7451 128.568 88.6161 128.854 88.4543C129.14 88.2901 129.283 88.1119 129.283 87.9149C129.283 87.6546 129.136 87.42 128.84 87.2113Z" fill="#788335"/>
<path id="Vector_35" d="M131.167 84.8191C131.075 85.7244 131.028 86.6273 131.028 87.5326C131.028 87.7296 131.04 87.929 131.066 88.133C131.089 88.337 131.103 88.4566 131.103 88.4918C131.103 88.6396 131.042 88.7123 130.918 88.7123C130.876 88.7123 130.829 88.6607 130.78 88.5599C130.731 88.459 130.688 88.3253 130.655 88.1635C130.623 87.9993 130.604 87.8305 130.604 87.6522C130.604 87.1597 130.627 86.1747 130.677 84.6972C130.684 84.5189 130.714 84.3524 130.773 84.1976C130.831 84.0428 130.935 83.9678 131.082 83.9678C131.132 83.9678 131.164 83.9936 131.178 84.0452C131.195 84.0968 131.202 84.1976 131.202 84.3454C131.202 84.3688 131.19 84.5236 131.167 84.8191ZM131.211 90.3212C131.094 90.3212 130.998 90.286 130.925 90.2156C130.852 90.1453 130.799 90.0655 130.768 89.9764C130.738 89.8873 130.721 89.8169 130.721 89.7677C130.721 89.6997 130.754 89.6363 130.817 89.573C130.883 89.512 130.949 89.4815 131.017 89.4815C131.059 89.4815 131.094 89.5003 131.118 89.5378C131.141 89.5754 131.169 89.6269 131.2 89.695C131.249 89.8052 131.298 89.8802 131.347 89.9154C131.397 89.9529 131.436 89.9998 131.467 90.0585C131.497 90.1171 131.514 90.1593 131.514 90.1828C131.516 90.2743 131.415 90.3212 131.211 90.3212Z" fill="#788335"/>
</g>
</g>
<g id="Group_3">
<path id="Vector_36" fill-rule="evenodd" clip-rule="evenodd" d="M165.141 64.6687C165.185 76.564 155.576 86.243 143.684 86.2852C131.791 86.3274 122.109 76.7211 122.067 64.8282" fill="#0E1617"/>
<path id="Vector_37" d="M163.923 64.7483C163.923 70.3582 161.648 75.4381 157.971 79.1155C154.294 82.7929 149.214 85.0679 143.604 85.0679C137.994 85.0679 132.914 82.7929 129.237 79.1155C125.559 75.4381 123.284 70.3582 123.284 64.7483M123.875 64.7483C123.875 70.1964 126.085 75.1285 129.654 78.6981C133.224 82.2676 138.156 84.4769 143.604 84.4769C149.052 84.4769 153.984 82.2676 157.554 78.6981C161.123 75.1285 163.332 70.1964 163.332 64.7483" fill="white"/>
<path id="Vector_38" fill-rule="evenodd" clip-rule="evenodd" d="M156.951 64.6638C156.951 74.0895 150.975 77.4808 143.604 77.4808C136.233 77.4808 130.257 74.0895 130.257 64.6638" fill="white"/>
</g>
<g id="Group_4">
<path id="Vector_39" fill-rule="evenodd" clip-rule="evenodd" d="M46.2087 64.6687C46.2533 76.564 36.6446 86.243 24.7517 86.2852C12.8587 86.3274 3.17735 76.7211 3.13513 64.8282" fill="#0E1617"/>
<path id="Vector_40" d="M44.9915 64.7483C44.9915 70.3582 42.7166 75.4381 39.0392 79.1155C35.3618 82.7929 30.2819 85.0679 24.6719 85.0679C19.062 85.0679 13.9821 82.7929 10.3047 79.1155C6.62729 75.4381 4.35236 70.3582 4.35236 64.7483M4.94337 64.7483C4.94337 70.1964 7.15263 75.1285 10.7222 78.6981C14.2917 82.2676 19.2238 84.4769 24.6719 84.4769C30.12 84.4769 35.0522 82.2676 38.6217 78.6981C42.1912 75.1285 44.4005 70.1964 44.4005 64.7483" fill="white"/>
<path id="Vector_41" fill-rule="evenodd" clip-rule="evenodd" d="M38.019 64.6638C38.019 74.0895 32.0432 77.4808 24.6719 77.4808C17.3007 77.4808 11.3249 74.0895 11.3249 64.6638" fill="white"/>
</g>
<path id="Vector_42" d="M2.47845 63.4817H169.522V46.0773L161.442 39.8529C159.195 38.1221 157.577 35.7065 156.827 32.9719L151.261 12.657C150.792 10.9473 150.799 9.13437 151.341 7.44811C151.979 5.46634 152.199 2.70593 148.902 2H132.253" stroke="#191919" stroke-width="4" stroke-miterlimit="10" stroke-linecap="round"/>
<g id="Group_5">
<path id="Vector_43" d="M63.1323 16.862C61.0755 17.0004 59.0163 17.1411 56.9595 17.2771C55.6508 17.3639 54.3398 17.4484 53.0311 17.5328C52.2736 17.3991 51.5208 17.4155 50.7679 17.5633C49.858 17.6477 49.4499 17.1974 49.3936 16.3203C49.3326 15.3564 49.1356 14.4018 49.1989 13.4285C49.3326 12.7367 49.3045 12.0472 49.1802 11.3553C49.349 10.6845 49.9447 10.6212 50.4466 10.5978C56.0073 10.3585 61.5516 9.74173 67.124 9.76284C68.4491 9.98799 69.7671 9.64089 71.0922 9.71828C72.9802 9.89652 74.2208 10.9378 74.8892 12.664C75.3723 13.907 75.5529 15.2156 75.5694 16.5501C75.6163 20.2979 75.6725 24.048 75.7335 27.7958C75.757 29.1818 75.9047 29.3296 77.2556 29.3108C79.2726 29.2827 81.2872 29.2475 83.3018 29.1982C84.7301 29.1654 84.8168 29.0505 84.8262 27.5823C84.8403 25.4434 84.6456 23.3045 84.8614 21.168C85.1405 21.9583 84.9833 22.7792 85.0138 23.5836C85.0631 24.8571 85.0607 26.133 85.0701 26.8553C84.981 24.6554 85.1123 21.9044 84.8801 19.1557C84.9083 16.9676 84.9036 14.7794 84.9786 12.5936C85.0232 11.3131 85.5157 11.0293 87.4037 10.9894C88.1166 11.1536 88.8249 10.9965 89.5332 11.0176C89.1111 11.0387 88.6912 11.1559 88.2761 10.9238C89.1368 10.6916 90.0163 10.7666 90.8888 10.8042C91.59 10.8346 91.9817 11.2427 91.9958 11.9533C92.0192 13.0791 92.0356 14.2072 91.8457 15.3259C91.583 14.9295 91.8011 14.4675 91.6745 14.0524C91.8011 15.7762 91.6393 17.5117 91.8503 19.2331C91.9489 26.0767 91.9066 32.9202 91.8175 39.7614C91.7941 41.4641 91.7143 43.1644 91.6932 44.8671C91.6838 45.6575 91.386 46.1242 90.5511 46.1758C89.0735 46.2649 87.5937 46.3634 86.1161 46.4689C85.3562 46.5229 84.9646 46.157 84.7652 45.444C84.4181 44.1917 84.594 42.9369 84.6949 41.6846C84.8028 40.329 84.7324 38.9734 84.7324 37.6178C84.7324 36.8791 84.4064 36.5226 83.6536 36.5062C81.4467 36.4569 79.2421 36.3866 77.0352 36.3138C76.1252 36.2834 75.818 36.743 75.8367 37.6014C75.9047 40.472 75.9516 43.3403 75.9915 46.211C76.015 47.9348 75.7992 48.1482 74.066 48.2678C72.809 48.3546 71.5495 48.439 70.2925 48.5422C69.5138 48.6055 69.1315 48.2396 68.9885 47.5009C68.8618 46.8465 68.8149 46.1922 68.7938 45.5285C68.5124 36.5742 68.7493 27.6152 68.6132 18.6585C68.6039 17.9784 68.829 17.1528 67.9096 16.7917C67.6939 16.4962 67.389 16.6697 67.1357 16.6697C65.1023 16.6838 63.069 16.7237 61.0356 16.7448C60.7331 16.7471 60.4165 16.8409 60.257 16.7565C61.1224 16.8738 62.1449 16.5853 63.1323 16.862Z" fill="#ED0C58"/>
<path id="Vector_44" d="M133.327 43.8072C130.82 43.7298 128.671 42.7307 126.821 41.1195C123.627 38.3333 121.551 34.8904 120.913 30.6431C120.765 29.658 120.817 28.6894 120.988 27.7279C121.938 22.3923 124.419 17.9433 128.751 14.6271C133.322 11.1279 140.112 11.6415 143.738 15.6872C145.705 17.8823 146.106 20.4246 145.396 23.1921C144.235 27.7068 141.106 30.4883 137.082 32.4231C135.283 33.2885 133.374 33.8303 131.378 34.0226C130.993 34.0601 130.592 34.0977 130.456 34.5386C130.32 34.9842 130.656 35.2328 130.944 35.4767C131.99 36.3656 133.16 36.8088 134.572 36.8229C137.063 36.8463 139.335 36.0114 141.648 35.2938C143.405 34.7473 143.428 34.7872 143.909 36.5157C144.254 37.7587 144.666 38.9829 145.07 40.2095C145.262 40.7958 145.206 41.3141 144.601 41.5627C142.004 42.6275 139.375 43.5914 136.533 43.7603C135.466 43.7251 134.396 43.7391 133.327 43.8072Z" fill="#ED0C58"/>
<path id="Vector_45" d="M99.8384 48.1693C99.6273 47.787 99.6883 47.3672 99.6883 46.9638C99.7141 36.8932 99.0762 26.846 98.6329 16.7917C98.5907 15.8466 98.4523 14.9061 98.4289 13.9609C98.3562 10.9449 100.148 8.92091 103.138 8.63713C107.228 8.24782 111.335 8.40496 115.432 8.32756C115.807 8.32053 116.185 8.40495 116.558 8.46593C117.21 8.57616 117.588 8.9561 117.534 9.63623C117.405 11.3014 117.283 12.9689 117.093 14.627C117.008 15.3611 116.431 15.5299 115.756 15.5182C113.863 15.4854 111.98 15.2438 110.083 15.3282C108.917 15.3798 107.749 15.4033 106.581 15.4291C105.875 15.4455 105.533 15.7668 105.61 16.4962C105.924 19.5099 105.821 22.5494 106.15 25.5631C106.241 26.3933 106.532 26.731 107.407 26.6185C108.654 26.4566 109.881 26.1142 111.157 26.1588C112.465 26.2057 112.756 26.4637 112.848 27.7723C112.932 28.9684 112.998 30.1645 113.087 31.3583C113.16 32.3128 112.723 32.8452 111.792 33.0047C110.334 33.2556 108.879 33.5324 107.416 33.7599C106.724 33.8677 106.438 34.2078 106.469 34.9044C106.593 37.6788 106.703 40.451 106.806 43.2254C106.839 44.1049 107.374 44.391 108.127 44.323C109.288 44.2175 110.439 44.0299 111.595 43.8938C114.037 43.6054 116.481 43.3193 118.924 43.0519C119.328 43.0073 119.745 43.0261 120.151 43.0707C120.73 43.1363 121.059 43.4717 121.056 44.0815C121.054 45.5004 121.056 46.9216 121.045 48.3405C121.04 49.0934 120.672 49.5108 119.895 49.5507C114.506 49.8227 109.154 50.4489 103.814 51.2229C101.288 51.5887 100.251 50.7749 99.8853 48.4719C100.045 48.1388 99.958 47.787 99.9533 47.447C99.9064 43.8212 99.8501 40.1953 99.8009 36.5695C99.7962 36.267 99.7211 35.9504 99.8548 35.6689C99.6906 35.6595 99.7751 35.7956 99.7774 35.9058C99.8408 39.7849 99.8947 43.6617 99.9486 47.5408C99.9557 47.7542 100.026 47.9887 99.8384 48.1693Z" fill="#ED0C58"/>
<path id="Vector_46" d="M13.5271 23.232C13.6327 27.613 13.4403 31.9869 13.2762 36.3609C13.173 39.1002 13.0041 41.8348 13.0932 44.5764C13.1355 45.9015 13.2809 46.0469 14.5895 46C17.9034 45.8804 21.161 45.3011 24.421 44.7547C26.9398 44.3325 26.9422 44.3114 27.3245 46.8561C27.4886 47.9466 27.6176 49.0442 27.8521 50.1183C28.0421 50.9908 27.7185 51.4223 26.9164 51.6545C25.3615 52.1048 23.7502 52.1846 22.1578 52.3534C19.4349 52.6419 16.7214 53.0218 13.9821 53.1344C13.1613 53.0101 12.3451 53.0218 11.5289 53.1719C8.1658 53.1766 6.26142 51.2628 5.95888 47.5831C5.74311 44.9657 6.04096 42.3578 6.11132 39.7475C6.31771 32.1276 6.74455 24.5125 6.41152 16.888C6.36227 15.7575 6.25673 14.6271 6.13712 13.499C6.04096 12.6078 6.39041 12.0918 7.28631 12.0121C8.72867 11.8831 10.1734 11.7893 11.6181 11.6767C12.5444 11.604 13.0651 12.059 13.1636 12.9479C13.2926 14.1041 13.5037 15.2556 13.4357 16.4283C13.3254 18.6962 13.37 20.9641 13.5271 23.232Z" fill="#ED0C58"/>
<path id="Vector_47" d="M48.4157 50.7374C43.1692 50.8078 37.6086 45.6997 37.4702 40.6855C37.4866 39.928 37.5828 39.1704 37.4491 38.4152C37.5804 36.0324 38.3849 33.8466 39.5763 31.8226C42.1889 27.3877 46.0399 24.503 51.0494 23.3937C54.4337 22.6455 57.4708 23.8651 60.1421 25.9242C61.3241 26.8366 61.8049 28.2742 62.3092 29.6392C62.4733 30.0848 62.2411 30.4366 61.894 30.7086C60.8762 31.5084 59.856 32.3011 58.8381 33.0985C58.2588 33.5535 57.7874 33.3518 57.3629 32.8616C56.589 31.9704 55.7259 31.2035 54.6166 30.7438C53.5214 30.2888 52.3862 30.1669 51.298 30.6125C47.9232 31.9939 45.5544 34.3673 44.6327 37.9532C43.8072 41.1569 45.7327 43.5983 49.0489 43.7414C51.2863 43.8376 53.3548 43.2723 55.2967 42.1888C55.8737 41.8652 56.453 41.5415 57.0299 41.2179C57.6326 40.8801 58.1392 41.0044 58.484 41.5884C59.3048 42.9721 60.0999 44.3676 60.8996 45.763C61.2139 46.3095 61.1435 46.809 60.6041 47.1655C57.7007 49.091 54.5931 50.4747 51.0611 50.7046C50.1746 50.5615 49.2951 50.6154 48.4157 50.7374Z" fill="#ED0C58"/>
<path id="Vector_48" d="M26.907 32.9531C26.6701 32.0924 26.187 31.4287 25.3708 31.0347C22.1484 29.4751 20.2159 26.8178 18.9917 23.5555C18.0911 21.1516 17.5305 18.682 17.6079 16.0975C17.6408 14.9859 17.9339 14.7115 19.1042 14.6481C19.7844 14.7443 20.4645 14.8147 21.1329 14.5801C21.867 14.3081 22.6222 14.423 23.368 14.4769C24.027 14.5262 24.36 14.9225 24.4491 15.5792C24.6532 17.0779 24.8033 18.5835 25.2372 20.0423C25.7133 21.6441 26.4333 23.0935 27.7302 24.1982C29.0201 25.2957 30.0286 25.3427 31.3959 24.3412C33.7013 22.655 34.9537 20.3097 35.5799 17.5798C35.6854 17.1201 35.7863 16.6557 35.9364 16.2101C36.0912 15.7504 36.3327 15.3424 36.9073 15.3189C37.7258 15.2673 38.549 15.4784 39.3675 15.2837C39.7451 15.279 40.1227 15.2603 40.498 15.2696C42.4281 15.3236 42.6345 15.5276 42.6767 17.4859C42.6861 17.9245 42.7096 18.3865 42.597 18.804C41.3258 23.4477 39.2479 27.5801 35.0827 30.3287C34.2548 30.8752 33.8913 31.5272 33.9382 32.5216C34.0203 34.2852 34.0226 36.0512 34.0296 37.8172C34.0343 39.0391 33.7834 39.3393 32.6014 39.4894C31.3842 39.6442 30.1599 39.7732 28.9357 39.8623C27.7067 39.9538 27.4581 39.7357 27.1861 38.5373C27.0759 38.0447 26.9563 37.5546 27.0055 37.0433C26.968 35.6854 27.0454 34.3157 26.907 32.9531Z" fill="#ED0C58"/>
<path id="Vector_49" d="M84.8825 19.1626C85.0819 19.3221 85.0631 19.5496 85.0654 19.77C85.103 22.2889 85.1405 24.8077 85.1733 27.3289C85.1757 27.4438 85.1405 27.5564 84.9576 27.669C84.9247 25.5043 84.8942 23.3396 84.8614 21.1772C84.8708 20.5041 84.8755 19.8334 84.8825 19.1626Z" fill="#ED0C58"/>
<path id="Vector_50" d="M63.1323 16.8621C62.0441 16.8785 60.9559 16.8949 59.8677 16.909C59.8653 16.834 59.8653 16.7589 59.863 16.6839C61.4062 16.6604 62.947 16.644 64.4902 16.6135C65.616 16.5924 66.7417 16.5408 67.8674 16.5244C68.2919 16.5174 68.041 16.6815 67.9143 16.7988C66.3196 16.8222 64.7248 16.8433 63.1323 16.8621Z" fill="#ED0C58"/>
<path id="Vector_51" d="M13.5271 23.2317C13.2386 22.9455 13.3559 22.575 13.3489 22.2419C13.3114 20.6026 13.2902 18.9632 13.2738 17.3239C13.2715 17.0213 13.1613 16.6883 13.431 16.428C13.635 18.6935 13.5904 20.9614 13.5271 23.2317Z" fill="#ED0C58"/>
<path id="Vector_52" d="M91.855 19.2401C91.4868 18.4661 91.7073 17.6406 91.6627 16.8408C91.6041 15.8183 91.6229 14.7911 91.8269 13.7615C91.8339 14.2845 91.8433 14.8075 91.8504 15.3305C91.8504 16.6345 91.8527 17.9384 91.855 19.2401Z" fill="#ED0C58"/>
<path id="Vector_53" d="M71.0922 9.72294C69.7718 10.0138 68.4515 10.0513 67.124 9.7675C68.4468 9.71356 69.7648 9.4415 71.0922 9.72294Z" fill="#ED0C58"/>
<path id="Vector_54" d="M39.3699 15.286C38.5537 15.6003 37.7352 15.6143 36.9097 15.3212C37.7258 15.0609 38.549 15.2227 39.3699 15.286Z" fill="#ED0C58"/>
<path id="Vector_55" d="M88.2785 10.9307C88.7382 10.9494 89.2002 10.9682 89.6599 10.987C88.9047 11.0855 88.1495 11.3317 87.4037 10.9963C87.6968 10.9752 87.9877 10.9541 88.2785 10.9307Z" fill="#ED0C58"/>
<path id="Vector_56" d="M21.1352 14.58C21.2197 14.6246 21.4003 14.7536 21.3229 14.7512C20.5841 14.7465 19.8266 14.9951 19.1066 14.648C19.7797 14.5167 20.4575 14.5612 21.1352 14.58Z" fill="#ED0C58"/>
<path id="Vector_57" d="M50.7679 17.5657C51.5184 17.2748 52.2736 17.2608 53.0312 17.5352C52.2783 17.6454 51.5231 17.6548 50.7679 17.5657Z" fill="#ED0C58"/>
<path id="Vector_58" d="M49.1802 11.3577C49.4522 12.0448 49.4804 12.7367 49.1989 13.4309C49.1239 12.7414 48.9949 12.0519 49.1802 11.3577Z" fill="#ED0C58"/>
<path id="Vector_59" d="M130.177 27.0593C129.851 27.0453 129.565 27.0546 129.286 27.0148C128.786 26.9444 128.517 26.6489 128.728 26.1564C129.828 23.5742 131.113 21.1258 133.794 19.803C135.081 19.1674 136.392 19.076 137.691 19.7772C138.627 20.2838 138.831 20.8115 138.477 21.8035C138.177 22.6432 137.743 23.4171 137.093 24.0339C135.144 25.8843 132.811 26.8694 130.177 27.0593Z" fill="white"/>
</g>
</g>
</svg>
